<mxfile host="app.diagrams.net" modified="2024-06-23T07:02:23.031Z" agent="Mozilla/5.0 (Windows NT 10.0; Win64; x64) AppleWebKit/537.36 (KHTML, like Gecko) Chrome/126.0.0.0 Safari/537.36" etag="ijQiutuoBYdjArcJKTZi" version="24.6.2" type="device">
  <diagram name="Page-1" id="c37626ed-c26b-45fb-9056-f9ebc6bb27b6">
    <mxGraphModel dx="980" dy="696" grid="1" gridSize="40" guides="1" tooltips="1" connect="1" arrows="1" fold="1" page="0" pageScale="1" pageWidth="1100" pageHeight="850" background="#000000" math="0" shadow="0">
      <root>
        <mxCell id="0" />
        <mxCell id="1" parent="0" />
        <mxCell id="Jm-KTQisqrYbofjO5Z1_-5" value="" style="edgeStyle=orthogonalEdgeStyle;rounded=0;orthogonalLoop=1;jettySize=auto;html=1;strokeColor=#FFFFFF;strokeWidth=2;endArrow=classicThin;endFill=0;" edge="1" parent="1" source="Jm-KTQisqrYbofjO5Z1_-1" target="Jm-KTQisqrYbofjO5Z1_-2">
          <mxGeometry relative="1" as="geometry" />
        </mxCell>
        <mxCell id="Jm-KTQisqrYbofjO5Z1_-1" value="Sentence Input" style="rounded=0;whiteSpace=wrap;html=1;fillColor=#0050ef;fontColor=#ffffff;strokeColor=#FFFFFF;" vertex="1" parent="1">
          <mxGeometry x="320" y="120" width="120" height="40" as="geometry" />
        </mxCell>
        <mxCell id="Jm-KTQisqrYbofjO5Z1_-6" value="" style="edgeStyle=orthogonalEdgeStyle;rounded=0;orthogonalLoop=1;jettySize=auto;html=1;strokeColor=#FFFFFF;strokeWidth=2;endArrow=classicThin;endFill=0;" edge="1" parent="1" source="Jm-KTQisqrYbofjO5Z1_-2" target="Jm-KTQisqrYbofjO5Z1_-3">
          <mxGeometry relative="1" as="geometry" />
        </mxCell>
        <mxCell id="Jm-KTQisqrYbofjO5Z1_-2" value="Sentence Vectorize" style="rounded=0;whiteSpace=wrap;html=1;fillColor=#0050ef;fontColor=#ffffff;strokeColor=#FFFFFF;" vertex="1" parent="1">
          <mxGeometry x="320" y="200" width="120" height="40" as="geometry" />
        </mxCell>
        <mxCell id="Jm-KTQisqrYbofjO5Z1_-15" value="" style="edgeStyle=orthogonalEdgeStyle;rounded=0;orthogonalLoop=1;jettySize=auto;html=1;strokeColor=#FFFFFF;strokeWidth=2;endArrow=classicThin;endFill=0;" edge="1" parent="1" source="Jm-KTQisqrYbofjO5Z1_-3" target="Jm-KTQisqrYbofjO5Z1_-7">
          <mxGeometry relative="1" as="geometry" />
        </mxCell>
        <mxCell id="Jm-KTQisqrYbofjO5Z1_-3" value="Embedding Vector" style="rounded=0;whiteSpace=wrap;html=1;fillColor=#0050ef;fontColor=#ffffff;strokeColor=#FFFFFF;" vertex="1" parent="1">
          <mxGeometry x="320" y="280" width="120" height="40" as="geometry" />
        </mxCell>
        <mxCell id="Jm-KTQisqrYbofjO5Z1_-16" value="" style="edgeStyle=orthogonalEdgeStyle;rounded=0;orthogonalLoop=1;jettySize=auto;html=1;strokeColor=#FFFFFF;strokeWidth=2;endArrow=classicThin;endFill=0;" edge="1" parent="1" source="Jm-KTQisqrYbofjO5Z1_-7" target="Jm-KTQisqrYbofjO5Z1_-9">
          <mxGeometry relative="1" as="geometry">
            <Array as="points">
              <mxPoint x="420" y="440" />
              <mxPoint x="420" y="440" />
            </Array>
          </mxGeometry>
        </mxCell>
        <mxCell id="Jm-KTQisqrYbofjO5Z1_-7" value="Pooling Vector" style="rounded=0;whiteSpace=wrap;html=1;fillColor=#0050ef;fontColor=#ffffff;strokeColor=#FFFFFF;" vertex="1" parent="1">
          <mxGeometry x="320" y="360" width="120" height="40" as="geometry" />
        </mxCell>
        <mxCell id="Jm-KTQisqrYbofjO5Z1_-18" value="" style="edgeStyle=orthogonalEdgeStyle;rounded=0;orthogonalLoop=1;jettySize=auto;html=1;strokeColor=#FFFFFF;strokeWidth=2;endArrow=classicThin;endFill=0;" edge="1" parent="1" source="Jm-KTQisqrYbofjO5Z1_-9" target="Jm-KTQisqrYbofjO5Z1_-17">
          <mxGeometry relative="1" as="geometry" />
        </mxCell>
        <mxCell id="Jm-KTQisqrYbofjO5Z1_-9" value="Concatinate" style="rounded=0;whiteSpace=wrap;html=1;fillColor=#0050ef;fontColor=#ffffff;strokeColor=#FFFFFF;" vertex="1" parent="1">
          <mxGeometry x="160" y="440" width="280" height="40" as="geometry" />
        </mxCell>
        <mxCell id="Jm-KTQisqrYbofjO5Z1_-12" value="" style="edgeStyle=orthogonalEdgeStyle;rounded=0;orthogonalLoop=1;jettySize=auto;html=1;strokeColor=#FFFFFF;strokeWidth=2;endArrow=classicThin;endFill=0;" edge="1" parent="1" source="Jm-KTQisqrYbofjO5Z1_-10" target="Jm-KTQisqrYbofjO5Z1_-9">
          <mxGeometry relative="1" as="geometry">
            <Array as="points">
              <mxPoint x="220" y="370" />
              <mxPoint x="220" y="370" />
            </Array>
          </mxGeometry>
        </mxCell>
        <mxCell id="Jm-KTQisqrYbofjO5Z1_-10" value="Number Input" style="rounded=0;whiteSpace=wrap;html=1;fillColor=#0050ef;fontColor=#ffffff;strokeColor=#FFFFFF;" vertex="1" parent="1">
          <mxGeometry x="160" y="120" width="120" height="40" as="geometry" />
        </mxCell>
        <mxCell id="Jm-KTQisqrYbofjO5Z1_-22" value="" style="edgeStyle=orthogonalEdgeStyle;rounded=0;orthogonalLoop=1;jettySize=auto;html=1;strokeColor=#FFFFFF;strokeWidth=2;endArrow=classicThin;endFill=0;" edge="1" parent="1" source="Jm-KTQisqrYbofjO5Z1_-17" target="Jm-KTQisqrYbofjO5Z1_-19">
          <mxGeometry relative="1" as="geometry" />
        </mxCell>
        <mxCell id="Jm-KTQisqrYbofjO5Z1_-17" value="RELU" style="rounded=0;whiteSpace=wrap;html=1;fillColor=#0050ef;fontColor=#ffffff;strokeColor=#FFFFFF;" vertex="1" parent="1">
          <mxGeometry x="240" y="520" width="120" height="40" as="geometry" />
        </mxCell>
        <mxCell id="Jm-KTQisqrYbofjO5Z1_-23" value="" style="edgeStyle=orthogonalEdgeStyle;rounded=0;orthogonalLoop=1;jettySize=auto;html=1;strokeColor=#FFFFFF;strokeWidth=2;endArrow=classicThin;endFill=0;" edge="1" parent="1" source="Jm-KTQisqrYbofjO5Z1_-19" target="Jm-KTQisqrYbofjO5Z1_-20">
          <mxGeometry relative="1" as="geometry" />
        </mxCell>
        <mxCell id="Jm-KTQisqrYbofjO5Z1_-19" value="Normalization" style="rounded=0;whiteSpace=wrap;html=1;fillColor=#0050ef;fontColor=#ffffff;strokeColor=#FFFFFF;" vertex="1" parent="1">
          <mxGeometry x="240" y="600" width="120" height="40" as="geometry" />
        </mxCell>
        <mxCell id="Jm-KTQisqrYbofjO5Z1_-24" value="" style="edgeStyle=orthogonalEdgeStyle;rounded=0;orthogonalLoop=1;jettySize=auto;html=1;strokeColor=#FFFFFF;strokeWidth=2;endArrow=classicThin;endFill=0;" edge="1" parent="1" source="Jm-KTQisqrYbofjO5Z1_-20" target="Jm-KTQisqrYbofjO5Z1_-21">
          <mxGeometry relative="1" as="geometry" />
        </mxCell>
        <mxCell id="Jm-KTQisqrYbofjO5Z1_-20" value="RELU" style="rounded=0;whiteSpace=wrap;html=1;fillColor=#0050ef;fontColor=#ffffff;strokeColor=#FFFFFF;" vertex="1" parent="1">
          <mxGeometry x="240" y="680" width="120" height="40" as="geometry" />
        </mxCell>
        <mxCell id="Jm-KTQisqrYbofjO5Z1_-21" value="Output" style="rounded=0;whiteSpace=wrap;html=1;fillColor=#0050ef;fontColor=#ffffff;strokeColor=#FFFFFF;" vertex="1" parent="1">
          <mxGeometry x="240" y="760" width="120" height="40" as="geometry" />
        </mxCell>
        <mxCell id="Jm-KTQisqrYbofjO5Z1_-27" value="Text" style="text;html=1;align=center;verticalAlign=middle;resizable=0;points=[];autosize=1;strokeColor=none;fillColor=none;" vertex="1" parent="1">
          <mxGeometry x="605" y="218" width="50" height="30" as="geometry" />
        </mxCell>
      </root>
    </mxGraphModel>
  </diagram>
</mxfile>
